<svg width="184" height="40" viewBox="0 0 184 40" fill="none" xmlns="http://www.w3.org/2000/svg">
<path d="M34.1422 5.85781C30.3647 2.08031 25.3422 0 20 0C14.6578 0 9.63531 2.08031 5.85781 5.85781C2.08031 9.63531 0 14.6578 0 20C0 25.3422 2.08039 30.3646 5.85781 34.1422C9.63523 37.9198 14.6578 40 20 40C25.3422 40 30.3647 37.9197 34.1422 34.1422C37.9197 30.3647 40 25.3422 40 20C40 14.6578 37.9196 9.63539 34.1422 5.85781Z" fill="#33CC95"/>
<g clip-path="url(#clip0_112912_174)">
<path d="M20.5714 8V33.1429" stroke="white" stroke-width="2" stroke-linecap="round" stroke-linejoin="round"/>
<path d="M26.2857 12.5714H17.7143C16.6534 12.5714 15.636 12.9929 14.8859 13.743C14.1357 14.4931 13.7143 15.5106 13.7143 16.5714C13.7143 17.6323 14.1357 18.6497 14.8859 19.3999C15.636 20.15 16.6534 20.5714 17.7143 20.5714H23.4286C24.4894 20.5714 25.5069 20.9929 26.257 21.743C27.0072 22.4932 27.4286 23.5106 27.4286 24.5714C27.4286 25.6323 27.0072 26.6497 26.257 27.3999C25.5069 28.15 24.4894 28.5714 23.4286 28.5714H13.7143" stroke="white" stroke-width="2" stroke-linecap="round" stroke-linejoin="round"/>
</g>
<path d="M62.864 14.488C63.856 14.488 64.728 14.688 65.48 15.088C66.232 15.472 66.824 15.976 67.256 16.6V14.704H70.64V28.096C70.64 29.328 70.392 30.424 69.896 31.384C69.4 32.36 68.656 33.128 67.664 33.688C66.672 34.264 65.472 34.552 64.064 34.552C62.176 34.552 60.624 34.112 59.408 33.232C58.208 32.352 57.528 31.152 57.368 29.632H60.704C60.88 30.24 61.256 30.72 61.832 31.072C62.424 31.44 63.136 31.624 63.968 31.624C64.944 31.624 65.736 31.328 66.344 30.736C66.952 30.16 67.256 29.28 67.256 28.096V26.032C66.824 26.656 66.224 27.176 65.456 27.592C64.704 28.008 63.84 28.216 62.864 28.216C61.744 28.216 60.72 27.928 59.792 27.352C58.864 26.776 58.128 25.968 57.584 24.928C57.056 23.872 56.792 22.664 56.792 21.304C56.792 19.96 57.056 18.768 57.584 17.728C58.128 16.688 58.856 15.888 59.768 15.328C60.696 14.768 61.728 14.488 62.864 14.488ZM67.256 21.352C67.256 20.536 67.096 19.84 66.776 19.264C66.456 18.672 66.024 18.224 65.48 17.92C64.936 17.6 64.352 17.44 63.728 17.44C63.104 17.44 62.528 17.592 62 17.896C61.472 18.2 61.04 18.648 60.704 19.24C60.384 19.816 60.224 20.504 60.224 21.304C60.224 22.104 60.384 22.808 60.704 23.416C61.04 24.008 61.472 24.464 62 24.784C62.544 25.104 63.12 25.264 63.728 25.264C64.352 25.264 64.936 25.112 65.48 24.808C66.024 24.488 66.456 24.04 66.776 23.464C67.096 22.872 67.256 22.168 67.256 21.352ZM77.7616 16.648C78.1936 16.008 78.7856 15.488 79.5376 15.088C80.3056 14.688 81.1776 14.488 82.1536 14.488C83.2896 14.488 84.3136 14.768 85.2256 15.328C86.1536 15.888 86.8816 16.688 87.4096 17.728C87.9536 18.752 88.2256 19.944 88.2256 21.304C88.2256 22.664 87.9536 23.872 87.4096 24.928C86.8816 25.968 86.1536 26.776 85.2256 27.352C84.3136 27.928 83.2896 28.216 82.1536 28.216C81.1616 28.216 80.2896 28.024 79.5376 27.64C78.8016 27.24 78.2096 26.728 77.7616 26.104V28H74.4016V10.24H77.7616V16.648ZM84.7936 21.304C84.7936 20.504 84.6256 19.816 84.2896 19.24C83.9696 18.648 83.5376 18.2 82.9936 17.896C82.4656 17.592 81.8896 17.44 81.2656 17.44C80.6576 17.44 80.0816 17.6 79.5376 17.92C79.0096 18.224 78.5776 18.672 78.2416 19.264C77.9216 19.856 77.7616 20.552 77.7616 21.352C77.7616 22.152 77.9216 22.848 78.2416 23.44C78.5776 24.032 79.0096 24.488 79.5376 24.808C80.0816 25.112 80.6576 25.264 81.2656 25.264C81.8896 25.264 82.4656 25.104 82.9936 24.784C83.5376 24.464 83.9696 24.008 84.2896 23.416C84.6256 22.824 84.7936 22.12 84.7936 21.304ZM113.858 14.512C115.49 14.512 116.802 15.016 117.794 16.024C118.802 17.016 119.306 18.408 119.306 20.2V28H115.946V20.656C115.946 19.616 115.682 18.824 115.154 18.28C114.626 17.72 113.906 17.44 112.994 17.44C112.082 17.44 111.354 17.72 110.81 18.28C110.282 18.824 110.018 19.616 110.018 20.656V28H106.658V20.656C106.658 19.616 106.394 18.824 105.866 18.28C105.338 17.72 104.618 17.44 103.706 17.44C102.778 17.44 102.042 17.72 101.498 18.28C100.97 18.824 100.706 19.616 100.706 20.656V28H97.346V14.704H100.706V16.312C101.138 15.752 101.69 15.312 102.362 14.992C103.05 14.672 103.802 14.512 104.618 14.512C105.658 14.512 106.586 14.736 107.402 15.184C108.218 15.616 108.85 16.24 109.298 17.056C109.73 16.288 110.354 15.672 111.17 15.208C112.002 14.744 112.898 14.512 113.858 14.512ZM128.878 28.216C127.598 28.216 126.446 27.936 125.422 27.376C124.398 26.8 123.59 25.992 122.998 24.952C122.422 23.912 122.134 22.712 122.134 21.352C122.134 19.992 122.43 18.792 123.022 17.752C123.63 16.712 124.454 15.912 125.494 15.352C126.534 14.776 127.694 14.488 128.974 14.488C130.254 14.488 131.414 14.776 132.454 15.352C133.494 15.912 134.31 16.712 134.902 17.752C135.51 18.792 135.814 19.992 135.814 21.352C135.814 22.712 135.502 23.912 134.878 24.952C134.27 25.992 133.438 26.8 132.382 27.376C131.342 27.936 130.174 28.216 128.878 28.216ZM128.878 25.288C129.486 25.288 130.054 25.144 130.582 24.856C131.126 24.552 131.558 24.104 131.878 23.512C132.198 22.92 132.358 22.2 132.358 21.352C132.358 20.088 132.022 19.12 131.35 18.448C130.694 17.76 129.886 17.416 128.926 17.416C127.966 17.416 127.158 17.76 126.502 18.448C125.862 19.12 125.542 20.088 125.542 21.352C125.542 22.616 125.854 23.592 126.478 24.28C127.118 24.952 127.918 25.288 128.878 25.288ZM146.127 14.512C147.711 14.512 148.991 15.016 149.967 16.024C150.943 17.016 151.431 18.408 151.431 20.2V28H148.071V20.656C148.071 19.6 147.807 18.792 147.279 18.232C146.751 17.656 146.031 17.368 145.119 17.368C144.191 17.368 143.455 17.656 142.911 18.232C142.383 18.792 142.119 19.6 142.119 20.656V28H138.759V14.704H142.119V16.36C142.567 15.784 143.135 15.336 143.823 15.016C144.527 14.68 145.295 14.512 146.127 14.512ZM167.466 21.064C167.466 21.544 167.434 21.976 167.37 22.36H157.65C157.73 23.32 158.066 24.072 158.658 24.616C159.25 25.16 159.978 25.432 160.842 25.432C162.09 25.432 162.978 24.896 163.506 23.824H167.13C166.746 25.104 166.01 26.16 164.922 26.992C163.834 27.808 162.498 28.216 160.914 28.216C159.634 28.216 158.482 27.936 157.458 27.376C156.45 26.8 155.658 25.992 155.082 24.952C154.522 23.912 154.242 22.712 154.242 21.352C154.242 19.976 154.522 18.768 155.082 17.728C155.642 16.688 156.426 15.888 157.434 15.328C158.442 14.768 159.602 14.488 160.914 14.488C162.178 14.488 163.306 14.76 164.298 15.304C165.306 15.848 166.082 16.624 166.626 17.632C167.186 18.624 167.466 19.768 167.466 21.064ZM163.986 20.104C163.97 19.24 163.658 18.552 163.05 18.04C162.442 17.512 161.698 17.248 160.818 17.248C159.986 17.248 159.282 17.504 158.706 18.016C158.146 18.512 157.802 19.208 157.674 20.104H163.986ZM183.119 14.704L174.887 34.288H171.311L174.191 27.664L168.863 14.704H172.631L176.063 23.992L179.543 14.704H183.119Z" fill="white"/>
<defs>
<clipPath id="clip0_112912_174">
<rect width="27.4286" height="27.4286" fill="white" transform="translate(6.85715 6.85714)"/>
</clipPath>
</defs>
</svg>
